<svg width="20" height="20" viewBox="0 0 20 20" fill="none" xmlns="http://www.w3.org/2000/svg">
<path d="M18.2143 8.21429H12.1429C11.9456 8.21429 11.7857 8.05437 11.7857 7.85714V1.78571C11.7857 0.799561 10.9862 0 10 0C9.01385 0 8.21429 0.799561 8.21429 1.78571V7.85714C8.21429 8.05437 8.05437 8.21429 7.85714 8.21429H1.78571C0.799561 8.21429 0 9.01385 0 10C0 10.9862 0.799561 11.7857 1.78571 11.7857H7.85714C8.05437 11.7857 8.21429 11.9456 8.21429 12.1429V18.2143C8.21429 19.2004 9.01385 20 10 20C10.9862 20 11.7857 19.2004 11.7857 18.2143V12.1429C11.7857 11.9456 11.9456 11.7857 12.1429 11.7857H18.2143C19.2004 11.7857 20 10.9862 20 10C20 9.01385 19.2004 8.21429 18.2143 8.21429Z" fill="#837F7F" fill-opacity="0.8"/>
</svg>
