<svg width="15" height="15" viewBox="0 0 15 15" fill="none" xmlns="http://www.w3.org/2000/svg">
<path d="M7.5293 0C3.40986 0 0 3.35127 0 7.4707C0 11.5901 3.40986 15 7.5293 15C11.6487 15 15 11.5901 15 7.4707C15 3.35127 11.6487 0 7.5293 0ZM11.2271 9.92549C11.5699 10.2683 11.5699 10.8258 11.2271 11.1688C10.887 11.5087 10.3295 11.5143 9.98379 11.1688L7.5293 8.71348L5.01592 11.1691C4.67314 11.5119 4.11563 11.5119 3.77256 11.1691C3.42979 10.8264 3.42979 10.2688 3.77256 9.92578L6.22764 7.4707L3.77256 5.01562C3.42979 4.67256 3.42979 4.11504 3.77256 3.77227C4.11563 3.42949 4.67314 3.42949 5.01592 3.77227L7.5293 6.22793L9.98379 3.77227C10.326 3.43008 10.8835 3.42891 11.2271 3.77227C11.5699 4.11504 11.5699 4.67256 11.2271 5.01562L8.77207 7.4707L11.2271 9.92549Z" fill="#837F7F"/>
</svg>
