<svg width="16" height="16" viewBox="0 0 16 16" fill="none" xmlns="http://www.w3.org/2000/svg">
<path d="M9.7776 0C9.53691 0 9.32846 0.0833686 9.15266 0.25006L4.52778 4.63159H0.889046C0.648153 4.63159 0.439804 4.71496 0.263951 4.88156C0.0879511 5.04843 0 5.24568 0 5.47376V10.5263C0 10.7543 0.0879998 10.9518 0.263951 11.1184C0.439999 11.285 0.648299 11.3685 0.889046 11.3685H4.52778L9.15266 15.7502C9.32841 15.9165 9.53686 16 9.7776 16C10.0184 16 10.2267 15.9165 10.4029 15.7502C10.5787 15.5835 10.6666 15.3861 10.6666 15.1581V0.842258C10.6666 0.614227 10.5787 0.416659 10.4029 0.250014C10.2266 0.0833686 10.0183 0 9.7776 0Z" fill="#616161"/>
<path d="M15.4093 6.13105C15.0158 5.55213 14.4954 5.14418 13.8468 4.90744C13.7543 4.86366 13.6387 4.84167 13.4999 4.84167C13.2592 4.84167 13.0508 4.92302 12.8749 5.0851C12.6991 5.24737 12.6109 5.44701 12.6109 5.68379C12.6109 5.868 12.6665 6.02372 12.7777 6.15092C12.8889 6.27821 13.0227 6.38789 13.1805 6.47992C13.3377 6.57205 13.4952 6.67297 13.6527 6.78256C13.8102 6.89225 13.9443 7.04793 14.0555 7.24964C14.1664 7.45136 14.2223 7.70132 14.2223 7.99964C14.2223 8.29818 14.1664 8.54801 14.0555 8.74986C13.9443 8.95176 13.8102 9.10725 13.6527 9.21721C13.4952 9.32662 13.3377 9.42755 13.1805 9.51967C13.0227 9.61161 12.8889 9.72153 12.7777 9.84868C12.6665 9.97597 12.6109 10.1316 12.6109 10.3158C12.6109 10.5529 12.6991 10.752 12.8749 10.9145C13.0507 11.0766 13.2591 11.1578 13.4999 11.1578C13.6387 11.1578 13.7543 11.1359 13.8468 11.0922C14.4954 10.8467 15.0158 10.4365 15.4093 9.86223C15.8032 9.28736 16 8.66709 16 8.00028C16 7.33329 15.8027 6.71053 15.4093 6.13105Z" fill="#616161"/>
</svg>
