<svg width="16" height="16" viewBox="0 0 16 16" fill="none" xmlns="http://www.w3.org/2000/svg">
<path d="M15.6047 0.25006C15.3404 0.0833686 15.0278 0 14.6667 0C14.3059 0 13.993 0.0833686 13.7293 0.25006L6.79184 4.63159H1.33366C0.972317 4.63159 0.659789 4.71496 0.395932 4.88156C0.132002 5.04843 0 5.24568 0 5.47376V10.5263C0 10.7543 0.132002 10.9518 0.395932 11.1184C0.660008 11.285 0.972536 11.3685 1.33366 11.3685H6.79163L13.7288 15.7502C13.993 15.9165 14.3056 16 14.6663 16C15.0278 16 15.3402 15.9165 15.6042 15.7502C15.8679 15.5835 16 15.386 16 15.1581V0.842258C15.9999 0.614227 15.8683 0.416705 15.6047 0.25006Z" fill="#616161"/>
</svg>
