<svg width="29" height="18" viewBox="0 0 29 18" fill="none" xmlns="http://www.w3.org/2000/svg">
<path d="M13.6996 9.0001C13.6996 9.44905 13.251 9.76988 13.251 9.76988L1.67437 17.7256C0.754245 18.3398 0 17.8876 0 16.7218V1.27765C0 0.112227 0.754245 -0.339544 1.67437 0.274229L13.251 8.22998C13.251 8.22998 13.6996 8.55116 13.6996 9.0001ZM27.8365 8.22998L15.8434 0.274229C14.9232 -0.339191 14.1683 0.112227 14.1683 1.27765V16.7218C14.1683 17.8876 14.9229 18.3398 15.8434 17.7256L27.8365 9.76988C27.8365 9.76988 28.2858 9.44905 28.2858 9.0001C28.2858 8.55116 27.8365 8.22998 27.8365 8.22998Z" fill="#616161"/>
</svg>
