<svg width="45" height="45" viewBox="0 0 45 45" fill="none" xmlns="http://www.w3.org/2000/svg">
<path d="M22.5 0C10.0736 0 0 10.0736 0 22.5C0 34.9264 10.0736 45 22.5 45C34.9263 45 45 34.9264 45 22.5C44.9999 10.0736 34.9263 0 22.5 0ZM22.5 40.7812C12.4035 40.7812 4.21874 32.5964 4.21874 22.5C4.21874 12.4036 12.4035 4.21875 22.5 4.21875C32.5964 4.21875 40.7813 12.4036 40.7813 22.5C40.7812 32.5964 32.5964 40.7812 22.5 40.7812ZM14.0625 14.0625H19.6875V30.9375H14.0625V14.0625ZM25.3125 14.0625H30.9375V30.9375H25.3125V14.0625Z" fill="#616161"/>
</svg>
