<svg width="45" height="45" viewBox="0 0 45 45" fill="none" xmlns="http://www.w3.org/2000/svg">
<path d="M41.9821 11.2517C35.7699 0.491916 22.0108 -3.19489 11.2518 3.01842C0.492024 9.22972 -3.19492 22.9883 3.01838 33.7477C9.22969 44.5075 22.9884 48.1949 33.7475 41.9821C44.5074 35.7687 48.1961 22.0108 41.9821 11.2517ZM31.4984 38.0844C22.8918 43.0552 11.8839 40.1056 6.91452 31.4973C1.94405 22.8907 4.89467 11.8829 13.5015 6.91456C22.1086 1.94409 33.1161 4.89342 38.0857 13.5014C43.0554 22.1093 40.1057 33.1148 31.4984 38.0844ZM30.5987 21.5856L18.8189 14.7153C17.7454 14.0886 16.8795 14.5896 16.8856 15.8313L16.9459 29.4681C16.9513 30.7095 17.8278 31.2149 18.9044 30.593L30.5941 23.844C31.6696 23.2233 31.6719 22.2123 30.5987 21.5856Z" fill="#616161"/>
</svg>
