<svg width="21" height="23" viewBox="0 0 21 23" fill="none" xmlns="http://www.w3.org/2000/svg">
<path d="M17.6573 8.58578C17.4992 8.58578 17.3413 8.50851 17.2206 8.35357C16.9794 8.04375 16.9794 7.54136 17.2206 7.23153L19.5088 4.29297L17.2206 1.35441C16.9794 1.04458 16.9794 0.54219 17.2206 0.232367C17.4619 -0.0774558 17.8527 -0.0774558 18.094 0.232367L20.8191 3.73198C21.0603 4.0418 21.0603 4.5442 20.8191 4.85402L18.094 8.35363C17.9734 8.50851 17.8154 8.58578 17.6573 8.58578Z" fill="#616161"/>
<path d="M11.5755 8.58582C11.4564 8.58582 11.3363 8.54204 11.2303 8.4499C10.9475 8.20493 10.8732 7.71164 11.0642 7.34847L12.9044 3.84886C13.0192 3.63071 13.211 3.49976 13.4162 3.49976H19.0199C19.3611 3.49976 19.6375 3.85506 19.6375 4.29295C19.6375 4.73084 19.3611 5.08614 19.0199 5.08614H13.7443L12.0878 8.23665C11.9684 8.46354 11.7736 8.58582 11.5755 8.58582Z" fill="#616161"/>
<path d="M6.22136 18.7681H0.617642C0.276485 18.7681 0 18.4128 0 17.9748C0 17.537 0.276485 17.1816 0.617642 17.1816H5.89322L7.70659 13.7333C7.89766 13.3706 8.28145 13.2743 8.56406 13.5201C8.84684 13.7651 8.92113 14.2584 8.7302 14.6215L6.73312 18.419C6.61831 18.6371 6.4266 18.7681 6.22136 18.7681Z" fill="#616161"/>
<path d="M17.6573 22.29C17.4992 22.29 17.3413 22.2127 17.2206 22.0578C16.9794 21.748 16.9794 21.2456 17.2206 20.9358L19.5088 17.9972L17.2206 15.0586C16.9794 14.7488 16.9794 14.2464 17.2206 13.9366C17.4619 13.6268 17.8527 13.6268 18.094 13.9366L20.8191 17.4362C21.0603 17.746 21.0603 18.2484 20.8191 18.5582L18.094 22.0579C17.9734 22.2127 17.8154 22.29 17.6573 22.29Z" fill="#616161"/>
<path d="M19.0199 18.7904H13.4161C13.2109 18.7904 13.0192 18.6594 12.9043 18.4413L5.89322 5.10848H0.617642C0.276485 5.10848 0 4.75318 0 4.31529C0 3.8774 0.276485 3.52209 0.617642 3.52209H6.22136C6.4266 3.52209 6.61831 3.65305 6.73316 3.8712L13.7443 17.204H19.0199C19.361 17.204 19.6375 17.5593 19.6375 17.9972C19.6375 18.4351 19.361 18.7904 19.0199 18.7904Z" fill="#616161"/>
</svg>
