<svg width="21" height="23" viewBox="0 0 21 23" fill="none" xmlns="http://www.w3.org/2000/svg">
<path d="M18.6707 18.7528H8.07272L9.54049 17.285C9.75928 17.0662 9.75928 16.7152 9.54049 16.4964C9.32169 16.2776 8.9707 16.2776 8.7519 16.4964L6.33146 18.9169C6.11266 19.1357 6.11266 19.4867 6.33146 19.7055L8.7519 22.1259C8.8613 22.2353 9.00261 22.29 9.14848 22.29C9.29434 22.29 9.43565 22.2353 9.54505 22.1259C9.76384 21.9071 9.76384 21.5561 9.54505 21.3373L8.07728 19.8696H18.6753C19.9562 19.8696 21 18.8257 21 17.5448V4.74519C21 3.46432 19.9562 2.42047 18.6753 2.42047H17.13C16.8201 2.42047 16.5694 2.67118 16.5694 2.98114C16.5694 3.2911 16.8201 3.54181 17.13 3.54181H18.6753C19.3408 3.54181 19.8832 4.08424 19.8832 4.74975V17.5494C19.8787 18.2104 19.3362 18.7528 18.6707 18.7528Z" fill="#616161"/>
<path d="M12.2435 0.164098C12.0247 -0.0546994 11.6738 -0.0546994 11.455 0.164098C11.2362 0.382896 11.2362 0.733883 11.455 0.952681L12.9227 2.42045H2.32472C1.04385 2.42045 0 3.46429 0 4.74517V17.5448C0 18.8257 1.04385 19.8695 2.32472 19.8695H3.86998C4.17994 19.8695 4.43065 19.6188 4.43065 19.3089C4.43065 18.9989 4.17994 18.7482 3.86998 18.7482H2.32472C1.65921 18.7482 1.11678 18.2058 1.11678 17.5403V4.74517C1.11678 4.07966 1.65921 3.53723 2.32472 3.53723H12.9227L11.455 5.00499C11.2362 5.22379 11.2362 5.57478 11.455 5.79358C11.5644 5.90297 11.7057 5.95767 11.8515 5.95767C11.9974 5.95767 12.1387 5.90297 12.2481 5.79358L14.6685 3.37313C14.7734 3.26829 14.8326 3.12698 14.8326 2.97656C14.8326 2.82613 14.7734 2.68483 14.6685 2.57999L12.2435 0.164098Z" fill="#616161"/>
</svg>
