<svg width="29" height="18" viewBox="0 0 29 18" fill="none" xmlns="http://www.w3.org/2000/svg">
<path d="M0 8.9999C0 9.44862 0.449425 9.76972 0.449425 9.76972L12.4444 17.7255C13.3645 18.3394 14.1193 17.8875 14.1193 16.7216V1.27752C14.1193 0.112012 13.3645 -0.339277 12.4444 0.274013L0.449425 8.22975C0.449425 8.22975 0 8.55118 0 8.9999ZM14.5883 8.9999C14.5883 9.44862 15.0371 9.76972 15.0371 9.76972L26.6154 17.7258C27.5358 18.3397 28.29 17.8875 28.29 16.7216V1.27752C28.29 0.112012 27.5358 -0.339277 26.6154 0.274013L15.0371 8.22975C15.0371 8.22975 14.5883 8.55118 14.5883 8.9999Z" fill="#616161"/>
</svg>
