<svg width="10" height="10" viewBox="0 0 10 10" fill="none" xmlns="http://www.w3.org/2000/svg">
<g clip-path="url(#clip0)">
<path d="M8.30659 1.00309H6.52036V0.326094C6.52036 0.146016 6.37436 0 6.19426 0H3.80573C3.62565 0 3.47963 0.145996 3.47963 0.326094V1.00309H1.6934C1.51333 1.00309 1.36731 1.14908 1.36731 1.32918V2.33225C1.36731 2.51232 1.51331 2.65834 1.6934 2.65834H8.30655C8.48663 2.65834 8.63264 2.51234 8.63264 2.33225V1.32918C8.63266 1.14906 8.48667 1.00309 8.30659 1.00309ZM5.86815 1.00309H4.13182V0.652168H5.86815V1.00309Z" fill="#837F7F"/>
<path d="M1.82019 3.31055L2.09058 9.68781C2.09796 9.86237 2.24166 10.0001 2.41636 10.0001H7.58371C7.75841 10.0001 7.9021 9.86237 7.90949 9.6878L8.17986 3.31055H1.82019ZM4.01429 8.67399C4.01429 8.85407 3.8683 9.00008 3.6882 9.00008C3.50812 9.00008 3.3621 8.85408 3.3621 8.67399V4.6366C3.3621 4.45652 3.5081 4.31051 3.6882 4.31051C3.86828 4.31051 4.01429 4.4565 4.01429 4.6366V8.67399ZM5.32607 8.67399C5.32607 8.85407 5.18007 9.00008 4.99998 9.00008C4.81988 9.00008 4.67388 8.85408 4.67388 8.67399V4.6366C4.67388 4.45652 4.81988 4.31051 4.99998 4.31051C5.18007 4.31051 5.32607 4.4565 5.32607 4.6366V8.67399ZM6.63785 8.67399C6.63785 8.85407 6.49185 9.00008 6.31175 9.00008C6.13166 9.00008 5.98566 8.85408 5.98566 8.67399V4.6366C5.98566 4.45652 6.13166 4.31051 6.31175 4.31051C6.49185 4.31051 6.63785 4.4565 6.63785 4.6366V8.67399Z" fill="#837F7F"/>
</g>
<defs>
<clipPath id="clip0">
<rect width="10" height="10" fill="white"/>
</clipPath>
</defs>
</svg>
