<svg width="19" height="20" viewBox="0 0 19 20" fill="none" xmlns="http://www.w3.org/2000/svg">
<path d="M18.8962 19.3607L13.3604 13.5257C14.7724 12.0904 15.6472 10.1118 15.6472 7.92962C15.6472 3.557 12.1377 0 7.82358 0C3.50943 0 0 3.557 0 7.92962C0 12.3022 3.50943 15.8592 7.82358 15.8592C9.71725 15.8592 11.4552 15.1731 12.8098 14.0347L18.359 19.8841C18.432 19.9615 18.5296 20 18.6276 20C18.7207 20 18.8135 19.9649 18.8857 19.8946C19.034 19.75 19.0385 19.511 18.8962 19.3607ZM7.82358 15.104C3.92036 15.104 0.745103 11.8857 0.745103 7.92962C0.745103 3.97349 3.92036 0.755201 7.82358 0.755201C11.7268 0.755201 14.9021 3.97349 14.9021 7.92962C14.9021 11.8857 11.7264 15.104 7.82358 15.104Z" fill="#3E4348"/>
</svg>
