<svg width="16" height="16" viewBox="0 0 16 16" fill="none" xmlns="http://www.w3.org/2000/svg">
<path d="M6.76932 1.15869C6.60275 1.15869 6.45851 1.2301 6.33666 1.37253L3.13472 5.11952H0.615506C0.448731 5.11952 0.30452 5.19093 0.182739 5.33328C0.0609242 5.47579 0 5.64467 0 5.83967V10.1603C0 10.3553 0.0609242 10.5242 0.182739 10.6666C0.304621 10.8092 0.448866 10.8805 0.615506 10.8805H3.13458L6.33652 14.6276C6.45834 14.7699 6.60258 14.8414 6.76919 14.8414C6.93596 14.8414 7.08018 14.7699 7.20196 14.6276C7.32377 14.4852 7.3847 14.3162 7.3847 14.1213V1.87896C7.3847 1.68396 7.32377 1.51504 7.20209 1.37253C7.08021 1.2301 6.9361 1.15869 6.76932 1.15869Z" fill="#616161"/>
<path d="M10.6683 9.59192C10.9408 9.10059 11.077 8.57 11.077 7.99993C11.077 7.42985 10.9408 6.89674 10.6683 6.40158C10.3957 5.90651 10.0354 5.5578 9.58649 5.35519C9.52243 5.31779 9.44221 5.29895 9.34606 5.29895C9.17955 5.29895 9.03514 5.36839 8.91339 5.50712C8.79182 5.64588 8.73062 5.81657 8.73062 6.01906C8.73062 6.17659 8.76912 6.30976 8.84621 6.41857C8.92309 6.52742 9.01598 6.62122 9.12513 6.69992C9.23391 6.77867 9.34296 6.86497 9.45208 6.95873C9.56113 7.05253 9.65402 7.18566 9.73087 7.35816C9.80752 7.53078 9.84625 7.74454 9.84625 7.99965C9.84625 8.25468 9.80776 8.46848 9.73087 8.6411C9.65402 8.81376 9.56113 8.94673 9.45208 9.04072C9.34296 9.13448 9.23391 9.22079 9.12513 9.29953C9.01598 9.37804 8.92309 9.47203 8.84621 9.58061C8.76935 9.68958 8.73062 9.82271 8.73062 9.98024C8.73062 10.183 8.79178 10.3535 8.91339 10.4922C9.03511 10.6309 9.17952 10.7006 9.34606 10.7006C9.44218 10.7006 9.5224 10.6817 9.58649 10.6445C10.0354 10.4341 10.3958 10.0833 10.6683 9.59192Z" fill="#616161"/>
<path d="M12.7213 11.1786C13.2662 10.2072 13.5388 9.14768 13.5388 7.99992C13.5388 6.85212 13.2662 5.79272 12.7213 4.82081C12.1765 3.84953 11.455 3.14258 10.5577 2.69992C10.4745 2.66248 10.3911 2.64368 10.308 2.64368C10.1413 2.64368 9.99693 2.71497 9.87509 2.85752C9.75341 3.00003 9.69241 3.16879 9.69241 3.36383C9.69241 3.65642 9.81746 3.87771 10.0676 4.02786C10.4265 4.24533 10.67 4.41035 10.7981 4.52282C11.2726 4.92797 11.6427 5.43609 11.9087 6.04747C12.1747 6.65889 12.3077 7.30964 12.3077 7.99976C12.3077 8.68993 12.1747 9.34064 11.9087 9.95202C11.6427 10.5635 11.2724 11.0716 10.7981 11.4766C10.67 11.5892 10.4265 11.7542 10.0676 11.9717C9.81746 12.1218 9.69241 12.3431 9.69241 12.6357C9.69241 12.8307 9.75341 12.9997 9.87509 13.142C9.9969 13.2847 10.1442 13.356 10.3173 13.356C10.3943 13.356 10.4745 13.337 10.5577 13.2998C11.455 12.857 12.1765 12.15 12.7213 11.1786Z" fill="#616161"/>
<path d="M14.7789 3.24619C13.9649 1.80226 12.8813 0.738795 11.5288 0.0561605C11.4455 0.0187203 11.3621 0 11.279 0C11.1124 0 10.9679 0.0713731 10.8463 0.213764C10.7244 0.356234 10.6634 0.525189 10.6634 0.720193C10.6634 0.990197 10.7885 1.21161 11.0386 1.38411C11.0835 1.4139 11.1553 1.45327 11.2548 1.50218C11.3541 1.55074 11.4262 1.59011 11.4712 1.62014C11.7661 1.80754 12.0289 1.99892 12.2599 2.19396C13.0482 2.87648 13.6637 3.72791 14.106 4.74814C14.5484 5.76828 14.7694 6.8522 14.7694 8C14.7694 9.148 14.5484 10.2317 14.106 11.2519C13.6638 12.2722 13.0482 13.1237 12.2599 13.806C12.0289 14.001 11.7661 14.1923 11.4712 14.3799C11.4262 14.4097 11.3541 14.449 11.2548 14.4978C11.1553 14.5463 11.0835 14.5857 11.0386 14.6159C10.7885 14.7883 10.6634 15.0098 10.6634 15.2798C10.6634 15.4748 10.7244 15.6436 10.8463 15.7861C10.9679 15.9287 11.1123 16 11.279 16C11.3621 16 11.4455 15.9812 11.5288 15.9436C12.8813 15.2612 13.9649 14.1977 14.7789 12.7537C15.593 11.3098 16 9.72501 16 7.99976C16 6.27452 15.5931 4.68996 14.7789 3.24619Z" fill="#616161"/>
</svg>
